<?xml version="1.0" standalone="no"?>
<!DOCTYPE svg PUBLIC "-//W3C//DTD SVG 20010904//EN"
 "http://www.w3.org/TR/2001/REC-SVG-20010904/DTD/svg10.dtd">
<svg version="1.0" xmlns="http://www.w3.org/2000/svg"
 width="512.000000pt" height="512.000000pt" viewBox="0 0 512.000000 512.000000"
 preserveAspectRatio="xMidYMid meet">

<g transform="translate(0.000000,512.000000) scale(0.100000,-0.100000)"
fill="#CD202E" stroke="#CD202E">
<path d="M2840 4991 l-85 -46 -215 -5 c-197 -5 -219 -7 -257 -27 -81 -44 -133
-139 -119 -220 4 -21 10 -137 14 -258 7 -206 9 -223 33 -275 14 -31 41 -73 59
-93 l32 -37 -63 0 c-160 0 -279 -44 -371 -135 -93 -92 -138 -205 -138 -347 l0
-68 -60 0 -60 0 0 31 c0 47 -28 96 -69 121 -33 21 -48 23 -186 23 -126 0 -155
-3 -183 -18 -39 -21 -70 -68 -78 -119 l-7 -38 -73 0 -74 0 0 110 c0 98 -2 110
-19 120 -28 14 -38 13 -61 -10 -17 -17 -20 -33 -20 -120 l0 -100 -112 0 c-98
0 -120 -3 -164 -24 -58 -27 -120 -94 -134 -145 -15 -56 -13 -1704 2 -1719 19
-19 55 -14 72 10 14 20 16 94 16 605 l0 583 2040 0 2040 0 0 -1254 0 -1253
-23 -34 c-12 -19 -38 -42 -57 -51 -33 -17 -147 -18 -1960 -18 -1813 0 -1927 1
-1960 18 -19 9 -45 32 -57 51 l-23 34 0 477 c0 454 -1 479 -19 501 -16 20 -23
22 -47 14 l-29 -10 -3 -485 c-2 -343 1 -497 9 -527 16 -57 72 -121 133 -149
l51 -24 1945 0 1945 0 51 24 c59 27 116 90 132 145 17 55 17 3007 0 3062 -16
55 -73 118 -132 145 -44 21 -66 24 -163 24 l-113 0 0 100 c0 87 -3 103 -20
120 -23 23 -33 24 -61 10 -17 -10 -19 -22 -19 -120 l0 -110 -74 0 -73 0 -7 38
c-8 51 -39 98 -78 119 -28 15 -57 18 -183 18 -138 0 -153 -2 -186 -23 -41 -25
-69 -74 -69 -121 l0 -31 -60 0 -60 0 0 68 c0 79 -24 189 -47 214 -20 22 -56
23 -74 2 -10 -13 -9 -31 5 -102 10 -48 16 -107 14 -132 l-3 -45 -337 -3 -338
-2 0 104 c0 110 -9 136 -50 136 -41 0 -50 -26 -50 -136 l0 -104 -337 2 -338 3
-3 45 c-8 113 39 232 121 305 94 85 94 85 616 85 431 0 459 1 474 18 22 24 21
45 -2 66 -15 14 -44 19 -120 23 l-101 6 30 34 c71 80 90 153 90 345 0 146 0
148 30 194 44 71 64 139 63 224 -1 77 -23 161 -51 193 -22 25 -47 20 -142 -32z
m-2 -608 c-4 -136 -6 -152 -31 -199 -91 -177 -326 -207 -456 -59 -55 63 -64
96 -69 258 l-4 147 282 0 282 0 -4 -147z m-1340 -845 c16 -16 16 -200 0 -216
-8 -8 -55 -12 -144 -12 -126 0 -134 1 -148 22 -18 26 -22 151 -6 192 l10 26
138 0 c94 0 142 -4 150 -12z m2422 -14 c16 -41 12 -166 -6 -192 -14 -21 -22
-22 -148 -22 -89 0 -136 4 -144 12 -16 16 -16 200 0 216 8 8 56 12 150 12
l138 0 10 -26z m578 -262 c18 -24 17 -262 -2 -288 -14 -19 -45 -19 -1753 -22
-956 -1 -1753 0 -1771 3 -41 8 -61 43 -44 80 l12 25 1730 0 1730 0 0 99 c0 92
2 101 22 115 25 18 56 13 76 -12z m-3676 -227 c27 -60 -26 -93 -134 -83 -53 6
-78 25 -78 59 0 37 27 49 116 49 80 0 85 -1 96 -25z"/>
<path d="M2392 4354 c-43 -30 -15 -138 50 -187 96 -74 240 -40 289 67 27 59
25 102 -6 122 -23 15 -27 15 -49 1 -13 -9 -26 -30 -30 -48 -16 -81 -100 -108
-150 -48 -14 17 -26 41 -26 54 0 20 -32 55 -50 55 -3 0 -16 -7 -28 -16z"/>
<path d="M3158 3929 c-21 -12 -24 -59 -6 -77 18 -18 53 -14 74 9 17 19 17 23
3 47 -16 29 -44 38 -71 21z"/>
<path d="M1182 2578 c-19 -19 -15 -66 7 -78 12 -6 115 -10 264 -10 224 0 245
2 260 18 20 22 22 53 5 70 -17 17 -519 17 -536 0z"/>
<path d="M2292 2578 c-17 -17 -15 -54 4 -72 23 -24 505 -24 528 0 19 18 21 55
4 72 -17 17 -519 17 -536 0z"/>
<path d="M3402 2578 c-18 -18 -15 -53 6 -71 16 -15 49 -17 261 -17 148 0 250
4 262 10 22 12 26 59 7 78 -17 17 -519 17 -536 0z"/>
<path d="M935 2281 c-35 -15 -75 -62 -86 -104 -6 -24 -9 -120 -7 -248 3 -231
5 -237 78 -286 32 -22 40 -23 299 -23 285 0 291 1 291 50 0 49 -6 50 -280 50
-186 0 -259 3 -268 12 -17 17 -17 429 0 446 9 9 134 12 500 12 l488 0 0 -235
0 -235 -53 0 c-77 0 -113 -44 -69 -83 17 -16 113 -17 1179 -17 l1160 0 33 23
c18 12 43 35 54 50 20 27 21 41 21 260 0 224 -1 233 -23 268 -46 75 92 69
-1694 68 -881 0 -1612 -4 -1623 -8z m2125 -326 l0 -235 -500 0 -500 0 0 235 0
235 500 0 500 0 0 -235z m1098 223 c17 -17 17 -429 0 -446 -9 -9 -134 -12
-500 -12 l-488 0 0 235 0 235 488 0 c366 0 491 -3 500 -12z"/>
<path d="M2596 2020 l-82 -80 -29 30 c-16 16 -37 32 -47 36 -26 8 -68 -22 -68
-48 0 -26 119 -148 145 -148 23 0 224 197 232 228 7 27 -21 62 -50 62 -11 0
-55 -35 -101 -80z"/>
<path d="M3706 2021 l-81 -80 -37 35 c-21 19 -45 34 -53 34 -20 0 -55 -36 -55
-57 0 -22 122 -143 145 -143 23 0 224 197 232 228 7 27 -21 62 -50 62 -11 0
-55 -35 -101 -79z"/>
<path d="M1486 2020 l-82 -80 -29 30 c-37 39 -60 45 -90 26 -41 -27 -32 -56
39 -124 35 -34 72 -62 82 -62 23 0 234 210 234 233 0 22 -35 57 -56 57 -9 0
-53 -36 -98 -80z"/>
<path d="M1627 1702 c-22 -24 -21 -45 1 -65 37 -34 82 -15 82 33 0 49 -51 68
-83 32z"/>
<path d="M438 1469 c-21 -12 -24 -59 -6 -77 20 -20 56 -14 74 13 15 23 15 27
0 50 -17 26 -40 31 -68 14z"/>
<path d="M1188 1409 c-21 -12 -24 -59 -6 -77 17 -17 519 -17 536 0 17 17 15
54 -4 72 -13 14 -51 16 -262 16 -149 0 -254 -5 -264 -11z"/>
<path d="M2298 1409 c-21 -12 -24 -59 -6 -77 17 -17 519 -17 536 0 19 19 15
66 -7 78 -26 13 -500 13 -523 -1z"/>
<path d="M3406 1404 c-19 -18 -21 -55 -4 -72 17 -17 519 -17 536 0 19 19 15
66 -7 78 -12 6 -115 10 -265 10 -209 0 -247 -2 -260 -16z"/>
<path d="M930 1098 c-33 -17 -51 -35 -67 -68 -22 -42 -23 -56 -23 -250 0 -231
8 -266 71 -311 l34 -24 1615 0 1615 0 34 24 c63 45 71 80 71 311 0 194 -1 208
-23 250 -16 33 -34 51 -67 68 l-44 22 -1586 0 -1586 0 -44 -22z m1020 -323 l0
-235 -474 0 c-284 0 -485 4 -500 10 l-26 10 0 213 c0 152 3 216 12 225 9 9
134 12 500 12 l488 0 0 -235z m1110 0 l0 -235 -500 0 -500 0 0 235 0 235 500
0 500 0 0 -235z"/>
<path d="M1485 840 l-79 -80 -36 35 c-20 19 -45 35 -57 35 -27 0 -53 -25 -53
-52 0 -30 110 -138 141 -138 18 0 54 30 132 108 59 59 107 114 107 123 0 21
-32 49 -56 49 -11 0 -54 -35 -99 -80z"/>
<path d="M2595 840 l-79 -80 -36 35 c-20 19 -45 35 -56 35 -23 0 -54 -29 -54
-51 0 -23 120 -139 144 -139 26 0 236 207 236 232 0 9 -7 24 -16 32 -30 31
-57 19 -139 -64z"/>
</g>
</svg>
