<svg width="25" height="24" viewBox="0 0 25 24" fill="none" xmlns="http://www.w3.org/2000/svg">
<path fill-rule="evenodd" clip-rule="evenodd" d="M12.8 3.75C12.4685 3.75 12.1505 3.8817 11.9161 4.11612C11.6848 4.34743 11.5535 4.66008 11.5501 4.98684C11.5526 5.13381 11.5116 5.27814 11.4337 5.40135C11.3773 5.49051 11.3017 5.5686 11.2092 5.62862C11.1766 5.6499 11.1422 5.66871 11.1063 5.68479C10.0871 6.16987 9.21822 6.92198 8.59198 7.86132C7.96599 8.80031 7.60598 9.89117 7.55 11.0181V14C7.55 14.0301 7.54818 14.0602 7.54456 14.0901C7.4552 14.8284 7.19373 15.5354 6.78122 16.1542C6.75973 16.1864 6.73786 16.2183 6.71561 16.25H18.8844C18.8621 16.2183 18.8403 16.1864 18.8188 16.1542C18.4063 15.5354 18.1448 14.8284 18.0554 14.0901C18.0518 14.0602 18.05 14.0301 18.05 14V11.0181C17.994 9.89117 17.634 8.80031 17.008 7.86132C16.3789 6.9176 15.5048 6.16287 14.4794 5.67802C14.2172 5.55405 14.05 5.29002 14.05 5C14.05 4.66848 13.9183 4.35054 13.6839 4.11612C13.4495 3.8817 13.1315 3.75 12.8 3.75ZM10.0925 4.51836C10.1904 3.96791 10.4547 3.45621 10.8555 3.05546C11.3712 2.53973 12.0707 2.25 12.8 2.25C13.5293 2.25 14.2288 2.53973 14.7445 3.05546C15.1453 3.45621 15.4096 3.96791 15.5075 4.51836C16.6122 5.11853 17.5563 5.97962 18.2561 7.02927C19.0362 8.19949 19.4832 9.55995 19.5492 10.9648C19.5497 10.9765 19.55 10.9883 19.55 11V13.9524C19.6158 14.4422 19.7925 14.9106 20.0668 15.3221C20.3491 15.7455 20.7268 16.0966 21.1696 16.3474C21.466 16.5152 21.612 16.8617 21.5252 17.1911C21.4385 17.5205 21.1406 17.75 20.8 17.75H4.8C4.45938 17.75 4.16153 17.5205 4.07475 17.1911C3.98796 16.8617 4.13403 16.5152 4.43043 16.3474C4.87319 16.0966 5.2509 15.7455 5.53315 15.3221C5.80746 14.9106 5.98415 14.4422 6.05 13.9524V11C6.05 10.9883 6.05027 10.9765 6.05082 10.9648C6.11676 9.55995 6.56376 8.19949 7.34391 7.02927C8.04367 5.97962 8.98781 5.11852 10.0925 4.51836Z" fill="#CED4DA"/>
<path fill-rule="evenodd" clip-rule="evenodd" d="M9.8 16.25C10.2142 16.25 10.55 16.5858 10.55 17V18C10.55 18.5967 10.7871 19.169 11.209 19.591C11.631 20.0129 12.2033 20.25 12.8 20.25C13.3967 20.25 13.969 20.0129 14.391 19.591C14.813 19.169 15.05 18.5967 15.05 18V17C15.05 16.5858 15.3858 16.25 15.8 16.25C16.2142 16.25 16.55 16.5858 16.55 17V18C16.55 18.9946 16.1549 19.9484 15.4517 20.6517C14.7484 21.3549 13.7946 21.75 12.8 21.75C11.8054 21.75 10.8516 21.3549 10.1484 20.6517C9.44509 19.9484 9.05 18.9946 9.05 18V17C9.05 16.5858 9.38579 16.25 9.8 16.25Z" fill="#CED4DA"/>
</svg>
