<svg width="20" height="20" viewBox="0 0 20 20" fill="none" xmlns="http://www.w3.org/2000/svg">
<path fill-rule="evenodd" clip-rule="evenodd" d="M4.16667 4.79169C3.8904 4.79169 3.62545 4.90143 3.4301 5.09678C3.23475 5.29213 3.125 5.55709 3.125 5.83335V15.8334C3.125 16.1096 3.23475 16.3746 3.4301 16.5699C3.62545 16.7653 3.8904 16.875 4.16667 16.875H9.82917C10.1743 16.875 10.4542 17.1548 10.4542 17.5C10.4542 17.8452 10.1743 18.125 9.82917 18.125H4.16667C3.55888 18.125 2.97598 17.8836 2.54621 17.4538C2.11644 17.024 1.875 16.4411 1.875 15.8334V5.83335C1.875 5.22557 2.11644 4.64267 2.54621 4.2129C2.97598 3.78313 3.55888 3.54169 4.16667 3.54169H14.1667C14.7745 3.54169 15.3573 3.78313 15.7871 4.2129C16.2169 4.64267 16.4583 5.22557 16.4583 5.83335V9.16669C16.4583 9.51187 16.1785 9.79169 15.8333 9.79169C15.4882 9.79169 15.2083 9.51187 15.2083 9.16669V5.83335C15.2083 5.55709 15.0986 5.29213 14.9032 5.09678C14.7079 4.90143 14.4429 4.79169 14.1667 4.79169H4.16667Z" fill="#495057"/>
<path fill-rule="evenodd" clip-rule="evenodd" d="M15 12.2917C13.5042 12.2917 12.2917 13.5042 12.2917 15C12.2917 16.4958 13.5042 17.7084 15 17.7084C16.4958 17.7084 17.7083 16.4958 17.7083 15C17.7083 13.5042 16.4958 12.2917 15 12.2917ZM11.0417 15C11.0417 12.8139 12.8139 11.0417 15 11.0417C17.1861 11.0417 18.9583 12.8139 18.9583 15C18.9583 17.1861 17.1861 18.9584 15 18.9584C12.8139 18.9584 11.0417 17.1861 11.0417 15Z" fill="#495057"/>
<path fill-rule="evenodd" clip-rule="evenodd" d="M12.5 1.875C12.8452 1.875 13.125 2.15482 13.125 2.5V5.83333C13.125 6.17851 12.8452 6.45833 12.5 6.45833C12.1548 6.45833 11.875 6.17851 11.875 5.83333V2.5C11.875 2.15482 12.1548 1.875 12.5 1.875Z" fill="#495057"/>
<path fill-rule="evenodd" clip-rule="evenodd" d="M5.83334 1.875C6.17852 1.875 6.45834 2.15482 6.45834 2.5V5.83333C6.45834 6.17851 6.17852 6.45833 5.83334 6.45833C5.48817 6.45833 5.20834 6.17851 5.20834 5.83333V2.5C5.20834 2.15482 5.48817 1.875 5.83334 1.875Z" fill="#495057"/>
<path fill-rule="evenodd" clip-rule="evenodd" d="M1.875 9.16669C1.875 8.82151 2.15482 8.54169 2.5 8.54169H15.8333C16.1785 8.54169 16.4583 8.82151 16.4583 9.16669C16.4583 9.51186 16.1785 9.79169 15.8333 9.79169H2.5C2.15482 9.79169 1.875 9.51186 1.875 9.16669Z" fill="#495057"/>
<path fill-rule="evenodd" clip-rule="evenodd" d="M15 13.1216C15.3452 13.1216 15.625 13.4015 15.625 13.7466V14.7411L16.2753 15.3914C16.5194 15.6354 16.5194 16.0312 16.2753 16.2753C16.0312 16.5193 15.6355 16.5193 15.3914 16.2753L14.5581 15.4419C14.4408 15.3247 14.375 15.1657 14.375 15V13.7466C14.375 13.4015 14.6548 13.1216 15 13.1216Z" fill="#495057"/>
</svg>
