<svg width="16" height="16" viewBox="0 0 16 16" fill="none" xmlns="http://www.w3.org/2000/svg">
<path fill-rule="evenodd" clip-rule="evenodd" d="M4.31311 2.31311C4.50838 2.11785 4.82496 2.11785 5.02022 2.31311L7.68689 4.97978C7.88215 5.17504 7.88215 5.49163 7.68689 5.68689C7.49163 5.88215 7.17504 5.88215 6.97978 5.68689L4.66667 3.37377L2.35355 5.68689C2.15829 5.88215 1.84171 5.88215 1.64645 5.68689C1.45118 5.49163 1.45118 5.17504 1.64645 4.97978L4.31311 2.31311Z" fill="#E1A93D"/>
<path fill-rule="evenodd" clip-rule="evenodd" d="M4.66666 2.16667C4.9428 2.16667 5.16666 2.39053 5.16666 2.66667V8.66667C5.16666 8.94281 4.9428 9.16667 4.66666 9.16667C4.39051 9.16667 4.16666 8.94281 4.16666 8.66667V2.66667C4.16666 2.39053 4.39051 2.16667 4.66666 2.16667Z" fill="#E1A93D"/>
<path fill-rule="evenodd" clip-rule="evenodd" d="M8.3131 10.3131C8.50837 10.1179 8.82495 10.1179 9.02021 10.3131L11.3333 12.6262L13.6464 10.3131C13.8417 10.1179 14.1583 10.1179 14.3535 10.3131C14.5488 10.5084 14.5488 10.825 14.3535 11.0202L11.6869 13.6869C11.4916 13.8821 11.175 13.8821 10.9798 13.6869L8.3131 11.0202C8.11784 10.825 8.11784 10.5084 8.3131 10.3131Z" fill="#E1A93D"/>
<path fill-rule="evenodd" clip-rule="evenodd" d="M11.3333 6.16667C11.6095 6.16667 11.8333 6.39053 11.8333 6.66667V13.3333C11.8333 13.6095 11.6095 13.8333 11.3333 13.8333C11.0572 13.8333 10.8333 13.6095 10.8333 13.3333V6.66667C10.8333 6.39053 11.0572 6.16667 11.3333 6.16667Z" fill="#E1A93D"/>
</svg>
