<svg width="40" height="40" viewBox="0 0 52 50" fill="none" xmlns="http://www.w3.org/2000/svg">
<path d="M40.341 40.341C38.391 42.2912 36.0758 43.8383 33.5279 44.8938C30.9799 45.9492 28.249 46.4925 25.491 46.4925C22.7331 46.4925 20.0021 45.9492 17.4542 44.8938C14.9062 43.8383 12.5911 42.2912 10.641 40.341C8.69076 38.3909 7.14372 36.0758 6.08824 33.5278C5.03275 30.9799 4.4895 28.2489 4.4895 25.491C4.4895 22.733 5.03275 20.0021 6.08824 17.4541C7.14372 14.9062 8.69076 12.591 10.641 10.641C12.5911 8.69073 14.9062 7.14369 17.4542 6.08821C20.0021 5.03272 22.7331 4.48947 25.491 4.48947C28.249 4.48947 30.9799 5.03272 33.5279 6.08821C36.0758 7.14369 38.391 8.69073 40.341 10.641C42.2913 12.591 43.8383 14.9062 44.8938 17.4541C45.9493 20.0021 46.4925 22.733 46.4925 25.491C46.4925 28.2489 45.9493 30.9799 44.8938 33.5278C43.8383 36.0758 42.2913 38.3909 40.341 40.341Z" fill="#F1A7AD"/>
<path d="M41.4029 9.58217C32.6279 0.807165 18.3569 0.807165 9.58193 9.58217C0.80993 18.3572 0.80993 32.628 9.58193 41.403C18.3569 50.175 32.6279 50.175 41.4029 41.403C50.1779 32.628 50.1779 18.3572 41.4029 9.58217ZM39.2819 11.7029C41.0958 13.5121 42.5349 15.6615 43.5169 18.0277C44.4988 20.394 45.0042 22.9307 45.0042 25.4926C45.0042 28.0545 44.4988 30.5912 43.5169 32.9574C42.5349 35.3236 41.0958 37.4731 39.2819 39.2822C37.4728 41.0957 35.3237 42.5343 32.9578 43.516C30.5918 44.4977 28.0555 45.0028 25.4939 45.0028C22.9324 45.0028 20.396 44.4977 18.0301 43.516C15.6641 42.5343 13.515 41.0957 11.7059 39.2822C9.89205 37.4731 8.45293 35.3236 7.471 32.9574C6.48907 30.5912 5.98363 28.0545 5.98363 25.4926C5.98363 22.9307 6.48907 20.394 7.471 18.0277C8.45293 15.6615 9.89205 13.5121 11.7059 11.7029C13.515 9.88946 15.6641 8.45079 18.0301 7.46913C20.396 6.48747 22.9324 5.98231 25.4939 5.98231C28.0555 5.98231 30.5918 6.48747 32.9578 7.46913C35.3237 8.45079 37.4728 9.88946 39.2819 11.7029Z" fill="#CD202E"/>
<path d="M16.8918 19.5833C15.8548 21.1326 15.25 22.9957 15.25 25C15.25 30.3848 19.6152 34.75 25 34.75C30.3848 34.75 34.75 30.3848 34.75 25C34.75 19.6152 30.3848 15.25 25 15.25V18.5M25 25C25 25 22.5 23 20.5 21" stroke="#CD202E" stroke-width="2" stroke-linecap="round" stroke-linejoin="round"/>
</svg>
