<svg width="48" height="48" viewBox="0 0 48 48" fill="none" xmlns="http://www.w3.org/2000/svg">
<path d="M40.341 40.341C38.391 42.2913 36.0758 43.8383 33.5279 44.8938C30.9799 45.9493 28.249 46.4925 25.491 46.4925C22.7331 46.4925 20.0021 45.9493 17.4542 44.8938C14.9062 43.8383 12.5911 42.2913 10.641 40.341C8.69076 38.391 7.14372 36.0758 6.08824 33.5279C5.03275 30.9799 4.4895 28.249 4.4895 25.491C4.4895 22.7331 5.03275 20.0021 6.08824 17.4542C7.14372 14.9062 8.69076 12.5911 10.641 10.641C12.5911 8.69076 14.9062 7.14372 17.4542 6.08824C20.0021 5.03275 22.7331 4.4895 25.491 4.4895C28.249 4.4895 30.9799 5.03275 33.5279 6.08824C36.0758 7.14372 38.391 8.69076 40.341 10.641C42.2913 12.5911 43.8383 14.9062 44.8938 17.4542C45.9493 20.0021 46.4925 22.7331 46.4925 25.491C46.4925 28.249 45.9493 30.9799 44.8938 33.5279C43.8383 36.0758 42.2913 38.391 40.341 40.341Z" fill="#D7F8C2"/>
<path d="M41.403 9.58217C32.628 0.807165 18.357 0.807165 9.58199 9.58217C0.809991 18.3572 0.809991 32.628 9.58199 41.403C18.357 50.175 32.628 50.175 41.403 41.403C50.178 32.628 50.178 18.3572 41.403 9.58217ZM39.282 11.7029C41.0959 13.5121 42.535 15.6615 43.5169 18.0277C44.4988 20.394 45.0043 22.9307 45.0043 25.4926C45.0043 28.0545 44.4988 30.5912 43.5169 32.9574C42.535 35.3236 41.0959 37.4731 39.282 39.2822C37.4729 41.0957 35.3238 42.5343 32.9578 43.516C30.5919 44.4977 28.0555 45.0028 25.494 45.0028C22.9325 45.0028 20.3961 44.4977 18.0301 43.516C15.6642 42.5343 13.5151 41.0957 11.706 39.2822C9.89211 37.4731 8.45299 35.3236 7.47106 32.9574C6.48913 30.5912 5.98369 28.0545 5.98369 25.4926C5.98369 22.9307 6.48913 20.394 7.47106 18.0277C8.45299 15.6615 9.89211 13.5121 11.706 11.7029C13.5151 9.88946 15.6642 8.45079 18.0301 7.46913C20.3961 6.48747 22.9325 5.98231 25.494 5.98231C28.0555 5.98231 30.5919 6.48747 32.9578 7.46913C35.3238 8.45079 37.4729 9.88946 39.282 11.7029Z" fill="#20CDA3"/>
<path fill-rule="evenodd" clip-rule="evenodd" d="M34.524 19.4852C34.1878 19.4821 33.8603 19.592 33.594 19.7972L22.629 28.0172L17.55 22.9382C17.4116 22.795 17.2461 22.6807 17.0631 22.6021C16.8801 22.5234 16.6833 22.4818 16.4841 22.4801C16.2849 22.4784 16.0874 22.5164 15.9031 22.5918C15.7187 22.6672 15.5512 22.7787 15.4104 22.9196C15.2696 23.0604 15.1582 23.2278 15.0828 23.4121C15.0073 23.5965 14.9694 23.7941 14.9711 23.9933C14.9729 24.1925 15.0142 24.3893 15.0928 24.5723C15.1715 24.7553 15.2857 24.9206 15.429 25.059L21.429 31.059C21.6842 31.3149 22.0232 31.4703 22.3837 31.4962C22.7441 31.5221 23.1018 31.4168 23.391 31.2L35.391 22.2C35.6459 22.0142 35.8356 21.7527 35.9334 21.4529C36.0312 21.153 36.032 20.83 35.9356 20.5297C35.8393 20.2294 35.6507 19.9671 35.3968 19.78C35.1428 19.593 34.8364 19.491 34.521 19.4882L34.524 19.4852Z" fill="#20CDA3"/>
</svg>
