<svg width="14" height="14" viewBox="0 0 14 14" fill="none" xmlns="http://www.w3.org/2000/svg">
<path fill-rule="evenodd" clip-rule="evenodd" d="M11.976 3.19064C12.1469 3.3615 12.1469 3.6385 11.976 3.80936L7.30936 8.47603C7.1385 8.64688 6.8615 8.64688 6.69064 8.47603L4.94064 6.72603C4.76979 6.55517 4.76979 6.27816 4.94064 6.10731C5.1115 5.93645 5.3885 5.93645 5.55936 6.10731L7 7.54795L11.3573 3.19064C11.5282 3.01979 11.8052 3.01979 11.976 3.19064Z" fill="#CD202E"/>
<path fill-rule="evenodd" clip-rule="evenodd" d="M3.5 2.77087C3.30661 2.77087 3.12115 2.8477 2.9844 2.98444C2.84765 3.12119 2.77083 3.30665 2.77083 3.50004V10.5C2.77083 10.6934 2.84765 10.8789 2.9844 11.0156C3.12115 11.1524 3.30661 11.2292 3.5 11.2292H10.5C10.6934 11.2292 10.8789 11.1524 11.0156 11.0156C11.1523 10.8789 11.2292 10.6934 11.2292 10.5V7.00004C11.2292 6.75842 11.425 6.56254 11.6667 6.56254C11.9083 6.56254 12.1042 6.75842 12.1042 7.00004V10.5C12.1042 10.9255 11.9352 11.3335 11.6343 11.6344C11.3335 11.9352 10.9255 12.1042 10.5 12.1042H3.5C3.07455 12.1042 2.66652 11.9352 2.36568 11.6344C2.06484 11.3335 1.89583 10.9255 1.89583 10.5V3.50004C1.89583 3.07459 2.06484 2.66656 2.36568 2.36572C2.66652 2.06488 3.07455 1.89587 3.5 1.89587H8.75C8.99162 1.89587 9.1875 2.09175 9.1875 2.33337C9.1875 2.575 8.99162 2.77087 8.75 2.77087H3.5Z" fill="#CD202E"/>
</svg>
