<svg width="32" height="32" viewBox="0 0 32 32" fill="none" xmlns="http://www.w3.org/2000/svg">
<path d="M23.6251 14.9275H28.5236C28.6254 15.1844 28.8136 15.3978 29.0558 15.5309C29.298 15.664 29.579 15.7085 29.8505 15.6567C30.122 15.6049 30.3669 15.46 30.543 15.247C30.7192 15.0341 30.8155 14.7664 30.8155 14.49C30.8155 14.2136 30.7192 13.9459 30.543 13.733C30.3669 13.52 30.122 13.3751 29.8505 13.3233C29.579 13.2715 29.298 13.316 29.0558 13.4491C28.8136 13.5822 28.6254 13.7956 28.5236 14.0525H23.6251V11.905H26.7826C26.8986 11.9049 27.0098 11.8588 27.0918 11.7768C27.1739 11.6948 27.22 11.5835 27.2201 11.4675V8.585H28.5236C28.6254 8.84194 28.8136 9.05533 29.0558 9.18843C29.298 9.32153 29.579 9.366 29.8505 9.31418C30.122 9.26236 30.3669 9.1175 30.543 8.90454C30.7192 8.69159 30.8155 8.42387 30.8155 8.1475C30.8155 7.87113 30.7192 7.60341 30.543 7.39045C30.3669 7.17749 30.122 7.03263 29.8505 6.98081C29.579 6.92899 29.298 6.97346 29.0558 7.10656C28.8136 7.23966 28.6254 7.45306 28.5236 7.71H26.7826C26.6665 7.71006 26.5553 7.75618 26.4733 7.83821C26.3912 7.92024 26.3451 8.03149 26.3451 8.1475V11.03H23.6251V8.8125C23.625 8.69649 23.5789 8.58524 23.4968 8.50321C23.4148 8.42118 23.3036 8.37506 23.1876 8.375H20.9701V5.655H23.8526C23.9686 5.65493 24.0798 5.60882 24.1618 5.52678C24.2439 5.44475 24.29 5.33351 24.2901 5.2175V3.4765C24.5469 3.37471 24.7601 3.18655 24.8931 2.94445C25.0261 2.70234 25.0706 2.42143 25.0187 2.15009C24.9669 1.87876 24.8221 1.63399 24.6092 1.45793C24.3964 1.28187 24.1288 1.18555 23.8526 1.18555C23.5763 1.18555 23.3087 1.28187 23.0959 1.45793C22.883 1.63399 22.7382 1.87876 22.6864 2.15009C22.6346 2.42143 22.679 2.70234 22.812 2.94445C22.945 3.18655 23.1583 3.37471 23.4151 3.4765V4.78H20.5326C20.4165 4.78006 20.3053 4.82618 20.2233 4.90821C20.1412 4.99025 20.0951 5.10149 20.0951 5.2175V8.375H17.9476V3.47675C18.2044 3.37496 18.4176 3.1868 18.5506 2.9447C18.6836 2.70259 18.7281 2.42168 18.6762 2.15034C18.6244 1.87901 18.4796 1.63424 18.2667 1.45818C18.0539 1.28212 17.7863 1.1858 17.5101 1.1858C17.2338 1.1858 16.9662 1.28212 16.7534 1.45818C16.5405 1.63424 16.3957 1.87901 16.3439 2.15034C16.2921 2.42168 16.3365 2.70259 16.4695 2.9447C16.6025 3.1868 16.8158 3.37496 17.0726 3.47675V8.375H14.9276V3.4765C15.1845 3.3747 15.3979 3.18649 15.531 2.94428C15.6641 2.70207 15.7086 2.42103 15.6567 2.14956C15.6049 1.87809 15.4601 1.63319 15.2471 1.45704C15.0341 1.28089 14.7664 1.18451 14.4901 1.18451C14.2137 1.18451 13.946 1.28089 13.733 1.45704C13.5201 1.63319 13.3752 1.87809 13.3234 2.14956C13.2716 2.42103 13.316 2.70207 13.4491 2.94428C13.5822 3.18649 13.7956 3.3747 14.0526 3.4765V8.375H11.9051V5.2175C11.905 5.10149 11.8589 4.99025 11.7768 4.90821C11.6948 4.82618 11.5836 4.78006 11.4676 4.78H8.58506V3.4765C8.842 3.3747 9.05539 3.18649 9.18849 2.94428C9.32159 2.70207 9.36606 2.42103 9.31424 2.14956C9.26243 1.87809 9.11756 1.63319 8.90461 1.45704C8.69165 1.28089 8.42393 1.18451 8.14756 1.18451C7.87119 1.18451 7.60347 1.28089 7.39051 1.45704C7.17756 1.63319 7.03269 1.87809 6.98087 2.14956C6.92906 2.42103 6.97353 2.70207 7.10662 2.94428C7.23972 3.18649 7.45312 3.3747 7.71006 3.4765V5.2175C7.71013 5.33351 7.75624 5.44475 7.83827 5.52678C7.92031 5.60882 8.03155 5.65493 8.14756 5.655H11.0301V8.375H8.81256C8.69655 8.37506 8.58531 8.42118 8.50327 8.50321C8.42124 8.58524 8.37513 8.69649 8.37506 8.8125V11.03H5.65506V8.1475C5.65499 8.03149 5.60888 7.92024 5.52684 7.83821C5.44481 7.75618 5.33357 7.71006 5.21756 7.71H3.47681C3.37501 7.45313 3.18683 7.2398 2.94467 7.10675C2.70251 6.9737 2.42154 6.92925 2.15014 6.98107C1.87874 7.03289 1.6339 7.17772 1.45779 7.39063C1.28169 7.60354 1.18534 7.87119 1.18534 8.1475C1.18534 8.4238 1.28169 8.69146 1.45779 8.90437C1.6339 9.11728 1.87874 9.26211 2.15014 9.31393C2.42154 9.36575 2.70251 9.3213 2.94467 9.18825C3.18683 9.0552 3.37501 8.84187 3.47681 8.585H4.78006V11.4675C4.78013 11.5835 4.82624 11.6948 4.90827 11.7768C4.99031 11.8588 5.10155 11.9049 5.21756 11.905H8.37506V14.0525H3.47681C3.37502 13.7957 3.18686 13.5824 2.94476 13.4494C2.70265 13.3164 2.42174 13.272 2.15041 13.3238C1.87907 13.3756 1.6343 13.5204 1.45824 13.7333C1.28218 13.9462 1.18586 14.2138 1.18586 14.49C1.18586 14.7662 1.28218 15.0338 1.45824 15.2467C1.6343 15.4595 1.87907 15.6044 2.15041 15.6562C2.42174 15.708 2.70265 15.6636 2.94476 15.5306C3.18686 15.3976 3.37502 15.1843 3.47681 14.9275H8.37506V17.0725H3.47656C3.37476 16.8156 3.18655 16.6022 2.94434 16.4691C2.70213 16.336 2.42109 16.2915 2.14962 16.3433C1.87815 16.3951 1.63325 16.54 1.4571 16.753C1.28095 16.9659 1.18457 17.2336 1.18457 17.51C1.18457 17.7864 1.28095 18.0541 1.4571 18.267C1.63325 18.48 1.87815 18.6249 2.14962 18.6767C2.42109 18.7285 2.70213 18.684 2.94434 18.5509C3.18655 18.4178 3.37476 18.2044 3.47656 17.9475H8.37506V20.095H5.21756C5.10155 20.0951 4.99031 20.1412 4.90827 20.2232C4.82624 20.3052 4.78013 20.4165 4.78006 20.5325V23.415H3.47656C3.37476 23.1581 3.18655 22.9447 2.94434 22.8116C2.70213 22.6785 2.42109 22.634 2.14962 22.6858C1.87815 22.7376 1.63325 22.8825 1.4571 23.0955C1.28095 23.3084 1.18457 23.5761 1.18457 23.8525C1.18457 24.1289 1.28095 24.3966 1.4571 24.6095C1.63325 24.8225 1.87815 24.9674 2.14962 25.0192C2.42109 25.071 2.70213 25.0265 2.94434 24.8934C3.18655 24.7603 3.37476 24.5469 3.47656 24.29H5.21756C5.33357 24.2899 5.44481 24.2438 5.52684 24.1618C5.60888 24.0798 5.65499 23.9685 5.65506 23.8525V20.97H8.37506V23.1875C8.37513 23.3035 8.42124 23.4148 8.50327 23.4968C8.58531 23.5788 8.69655 23.6249 8.81256 23.625H11.0301V26.345H8.14756C8.03155 26.3451 7.92031 26.3912 7.83827 26.4732C7.75624 26.5552 7.71013 26.6665 7.71006 26.7825V28.5235C7.45326 28.6253 7.24 28.8134 7.10699 29.0556C6.97399 29.2977 6.92957 29.5786 6.98138 29.8499C7.0332 30.1212 7.17801 30.366 7.39087 30.5421C7.60373 30.7181 7.87132 30.8144 8.14756 30.8144C8.4238 30.8144 8.69139 30.7181 8.90425 30.5421C9.11711 30.366 9.26192 30.1212 9.31374 29.8499C9.36555 29.5786 9.32113 29.2977 9.18813 29.0556C9.05512 28.8134 8.84186 28.6253 8.58506 28.5235V27.22H11.4676C11.5836 27.2199 11.6948 27.1738 11.7768 27.0918C11.8589 27.0098 11.905 26.8985 11.9051 26.7825V23.625H14.0526V28.5232C13.7958 28.625 13.5825 28.8132 13.4495 29.0553C13.3165 29.2974 13.2721 29.5783 13.3239 29.8497C13.3757 30.121 13.5205 30.3658 13.7334 30.5418C13.9462 30.7179 14.2138 30.8142 14.4901 30.8142C14.7663 30.8142 15.0339 30.7179 15.2467 30.5418C15.4596 30.3658 15.6044 30.121 15.6562 29.8497C15.7081 29.5783 15.6636 29.2974 15.5306 29.0553C15.3976 28.8132 15.1844 28.625 14.9276 28.5232V23.625H17.0726V28.5235C16.8156 28.6253 16.6022 28.8135 16.4691 29.0557C16.336 29.2979 16.2916 29.579 16.3434 29.8504C16.3952 30.1219 16.5401 30.3668 16.753 30.543C16.966 30.7191 17.2337 30.8155 17.5101 30.8155C17.7864 30.8155 18.0541 30.7191 18.2671 30.543C18.4801 30.3668 18.6249 30.1219 18.6767 29.8504C18.7286 29.579 18.6841 29.2979 18.551 29.0557C18.4179 28.8135 18.2045 28.6253 17.9476 28.5235V23.625H20.0951V26.7825C20.0951 26.8985 20.1412 27.0098 20.2233 27.0918C20.3053 27.1738 20.4165 27.2199 20.5326 27.22H23.4151V28.5235C23.1582 28.6253 22.9449 28.8135 22.8118 29.0556C22.6788 29.2978 22.6343 29.5788 22.6861 29.8502C22.7379 30.1216 22.8828 30.3664 23.0957 30.5425C23.3086 30.7186 23.5763 30.815 23.8526 30.815C24.1289 30.815 24.3965 30.7186 24.6094 30.5425C24.8223 30.3664 24.9672 30.1216 25.019 29.8502C25.0708 29.5788 25.0264 29.2978 24.8933 29.0556C24.7603 28.8135 24.5469 28.6253 24.2901 28.5235V26.7825C24.29 26.6665 24.2439 26.5552 24.1618 26.4732C24.0798 26.3912 23.9686 26.3451 23.8526 26.345H20.9701V23.625H23.1876C23.3036 23.6249 23.4148 23.5788 23.4968 23.4968C23.5789 23.4148 23.625 23.3035 23.6251 23.1875V20.97H26.3451V23.8525C26.3451 23.9685 26.3912 24.0798 26.4733 24.1618C26.5553 24.2438 26.6665 24.2899 26.7826 24.29H28.5236C28.6254 24.5468 28.8135 24.7601 29.0556 24.8931C29.2977 25.0261 29.5786 25.0705 29.85 25.0187C30.1213 24.9669 30.3661 24.8221 30.5421 24.6092C30.7182 24.3963 30.8145 24.1287 30.8145 23.8525C30.8145 23.5763 30.7182 23.3087 30.5421 23.0958C30.3661 22.8829 30.1213 22.7381 29.85 22.6863C29.5786 22.6345 29.2977 22.6789 29.0556 22.8119C28.8135 22.9449 28.6254 23.1582 28.5236 23.415H27.2201V20.5325C27.22 20.4165 27.1739 20.3052 27.0918 20.2232C27.0098 20.1412 26.8986 20.0951 26.7826 20.095H23.6251V17.9475H28.5233C28.6251 18.2043 28.8133 18.4176 29.0554 18.5506C29.2975 18.6836 29.5784 18.728 29.8497 18.6762C30.121 18.6244 30.3658 18.4795 30.5419 18.2667C30.7179 18.0538 30.8143 17.7862 30.8143 17.51C30.8143 17.2338 30.7179 16.9662 30.5419 16.7533C30.3658 16.5404 30.121 16.3956 29.8497 16.3438C29.5784 16.292 29.2975 16.3364 29.0554 16.4694C28.8133 16.6024 28.6251 16.8157 28.5233 17.0725H23.6251V14.9275ZM29.6251 14.1775C29.6869 14.1775 29.7473 14.1958 29.7987 14.2302C29.8501 14.2645 29.8901 14.3133 29.9138 14.3704C29.9374 14.4275 29.9436 14.4903 29.9316 14.551C29.9195 14.6116 29.8897 14.6673 29.846 14.711C29.8023 14.7547 29.7466 14.7844 29.686 14.7965C29.6254 14.8086 29.5626 14.8024 29.5055 14.7787C29.4484 14.7551 29.3996 14.715 29.3652 14.6636C29.3309 14.6122 29.3126 14.5518 29.3126 14.49C29.3126 14.4071 29.3455 14.3275 29.4041 14.2689C29.4626 14.2102 29.5421 14.1771 29.6251 14.177V14.1775ZM29.6251 7.83525C29.6869 7.83525 29.7473 7.85358 29.7987 7.88791C29.8501 7.92225 29.8901 7.97106 29.9138 8.02816C29.9374 8.08526 29.9436 8.14809 29.9316 8.20871C29.9195 8.26933 29.8897 8.32502 29.846 8.36872C29.8023 8.41242 29.7466 8.44219 29.686 8.45424C29.6254 8.4663 29.5626 8.46011 29.5055 8.43646C29.4484 8.41281 29.3996 8.37275 29.3652 8.32136C29.3309 8.26997 29.3126 8.20955 29.3126 8.14775C29.3126 8.06482 29.3455 7.98528 29.4041 7.9266C29.4626 7.86792 29.5421 7.83488 29.6251 7.83475V7.83525ZM23.8528 2.0625C23.9146 2.0625 23.975 2.08083 24.0264 2.11516C24.0778 2.1495 24.1179 2.19831 24.1415 2.25541C24.1652 2.31251 24.1714 2.37534 24.1593 2.43596C24.1472 2.49658 24.1175 2.55227 24.0738 2.59597C24.0301 2.63967 23.9744 2.66944 23.9138 2.68149C23.8532 2.69355 23.7903 2.68736 23.7332 2.66371C23.6761 2.64006 23.6273 2.6 23.593 2.54861C23.5586 2.49722 23.5403 2.43681 23.5403 2.375C23.5404 2.29216 23.5734 2.21275 23.632 2.15417C23.6906 2.0956 23.77 2.06263 23.8528 2.0625ZM17.5106 2.0625C17.5724 2.0625 17.6328 2.08083 17.6842 2.11516C17.7356 2.1495 17.7756 2.19831 17.7993 2.25541C17.8229 2.31251 17.8291 2.37534 17.8171 2.43596C17.805 2.49658 17.7752 2.55227 17.7315 2.59597C17.6878 2.63967 17.6321 2.66944 17.5715 2.68149C17.5109 2.69355 17.4481 2.68736 17.391 2.66371C17.3339 2.64006 17.2851 2.6 17.2507 2.54861C17.2164 2.49722 17.1981 2.43681 17.1981 2.375C17.1982 2.29216 17.2312 2.21275 17.2897 2.15417C17.3483 2.0956 17.4277 2.06263 17.5106 2.0625ZM14.4896 2.0625C14.5514 2.0625 14.6118 2.08083 14.6632 2.11516C14.7146 2.1495 14.7546 2.19831 14.7783 2.25541C14.8019 2.31251 14.8081 2.37534 14.7961 2.43596C14.784 2.49658 14.7542 2.55227 14.7105 2.59597C14.6668 2.63967 14.6111 2.66944 14.5505 2.68149C14.4899 2.69355 14.4271 2.68736 14.37 2.66371C14.3129 2.64006 14.2641 2.6 14.2297 2.54861C14.1954 2.49722 14.1771 2.43681 14.1771 2.375C14.1771 2.29214 14.2101 2.21269 14.2687 2.1541C14.3273 2.09551 14.4067 2.06256 14.4896 2.0625ZM8.14731 2.0625C8.20912 2.0625 8.26953 2.08083 8.32092 2.11516C8.37231 2.1495 8.41237 2.19831 8.43602 2.25541C8.45967 2.31251 8.46586 2.37534 8.4538 2.43596C8.44175 2.49658 8.41198 2.55227 8.36828 2.59597C8.32458 2.63967 8.26889 2.66944 8.20827 2.68149C8.14766 2.69355 8.08482 2.68736 8.02772 2.66371C7.97062 2.64006 7.92181 2.6 7.88748 2.54861C7.85314 2.49722 7.83481 2.43681 7.83481 2.375C7.83488 2.29214 7.86782 2.21269 7.92641 2.1541C7.985 2.09551 8.06445 2.06256 8.14731 2.0625ZM2.37506 8.45975C2.31325 8.45975 2.25283 8.44142 2.20144 8.40708C2.15005 8.37274 2.11 8.32394 2.08635 8.26684C2.06269 8.20974 2.05651 8.1469 2.06856 8.08628C2.08062 8.02566 2.11038 7.96998 2.15409 7.92628C2.19779 7.88257 2.25347 7.85281 2.31409 7.84075C2.37471 7.82869 2.43755 7.83488 2.49465 7.85854C2.55175 7.88219 2.60056 7.92224 2.63489 7.97363C2.66923 8.02502 2.68756 8.08544 2.68756 8.14725C2.68749 8.23011 2.65455 8.30956 2.59596 8.36815C2.53737 8.42674 2.45792 8.45968 2.37506 8.45975ZM2.37506 14.802C2.31325 14.802 2.25283 14.7837 2.20144 14.7493C2.15005 14.715 2.11 14.6662 2.08635 14.6091C2.06269 14.552 2.05651 14.4892 2.06856 14.4285C2.08062 14.3679 2.11038 14.3122 2.15409 14.2685C2.19779 14.2248 2.25347 14.1951 2.31409 14.183C2.37471 14.1709 2.43755 14.1771 2.49465 14.2008C2.55175 14.2244 2.60056 14.2645 2.63489 14.3159C2.66923 14.3673 2.68756 14.4277 2.68756 14.4895C2.68749 14.5724 2.65455 14.6518 2.59596 14.7104C2.53737 14.769 2.45792 14.8019 2.37506 14.802ZM2.37506 17.823C2.31325 17.823 2.25283 17.8047 2.20144 17.7703C2.15005 17.736 2.11 17.6872 2.08635 17.6301C2.06269 17.573 2.05651 17.5102 2.06856 17.4495C2.08062 17.3889 2.11038 17.3332 2.15409 17.2895C2.19779 17.2458 2.25347 17.2161 2.31409 17.204C2.37471 17.1919 2.43755 17.1981 2.49465 17.2218C2.55175 17.2454 2.60056 17.2855 2.63489 17.3369C2.66923 17.3883 2.68756 17.4487 2.68756 17.5105C2.68743 17.5933 2.65446 17.6727 2.59588 17.7313C2.53731 17.7899 2.4579 17.8229 2.37506 17.823ZM2.37506 24.1652C2.31325 24.1652 2.25283 24.1469 2.20144 24.1126C2.15005 24.0782 2.11 24.0294 2.08635 23.9723C2.06269 23.9152 2.05651 23.8524 2.06856 23.7918C2.08062 23.7312 2.11038 23.6755 2.15409 23.6318C2.19779 23.5881 2.25347 23.5583 2.31409 23.5463C2.37471 23.5342 2.43755 23.5404 2.49465 23.564C2.55175 23.5877 2.60056 23.6277 2.63489 23.6791C2.66923 23.7305 2.68756 23.7909 2.68756 23.8527C2.68743 23.9356 2.65446 24.015 2.59588 24.0736C2.53731 24.1321 2.4579 24.1651 2.37506 24.1652ZM8.14731 29.9375C8.0855 29.9375 8.02508 29.9192 7.97369 29.8848C7.9223 29.8505 7.88225 29.8017 7.8586 29.7446C7.83494 29.6875 7.82876 29.6247 7.84081 29.564C7.85287 29.5034 7.88263 29.4477 7.92634 29.404C7.97004 29.3603 8.02572 29.3306 8.08634 29.3185C8.14696 29.3064 8.2098 29.3126 8.2669 29.3363C8.324 29.3599 8.37281 29.4 8.40714 29.4514C8.44148 29.5028 8.45981 29.5632 8.45981 29.625C8.45968 29.7078 8.42671 29.7872 8.36813 29.8458C8.30956 29.9044 8.23015 29.9374 8.14731 29.9375ZM14.4896 29.9375C14.4278 29.9375 14.3673 29.9192 14.3159 29.8848C14.2646 29.8505 14.2245 29.8017 14.2008 29.7446C14.1772 29.6875 14.171 29.6247 14.1831 29.564C14.1951 29.5034 14.2249 29.4477 14.2686 29.404C14.3123 29.3603 14.368 29.3306 14.4286 29.3185C14.4892 29.3064 14.552 29.3126 14.6091 29.3363C14.6663 29.3599 14.7151 29.4 14.7494 29.4514C14.7837 29.5028 14.8021 29.5632 14.8021 29.625C14.8019 29.7078 14.769 29.7872 14.7104 29.8458C14.6518 29.9044 14.5724 29.9374 14.4896 29.9375ZM17.5106 29.9375C17.4488 29.9375 17.3883 29.9192 17.3369 29.8848C17.2856 29.8505 17.2455 29.8017 17.2218 29.7446C17.1982 29.6875 17.192 29.6247 17.2041 29.564C17.2161 29.5034 17.2459 29.4477 17.2896 29.404C17.3333 29.3603 17.389 29.3306 17.4496 29.3185C17.5102 29.3064 17.573 29.3126 17.6301 29.3363C17.6873 29.3599 17.7361 29.4 17.7704 29.4514C17.8047 29.5028 17.8231 29.5632 17.8231 29.625C17.823 29.7079 17.79 29.7873 17.7315 29.8459C17.6729 29.9045 17.5934 29.9374 17.5106 29.9375ZM23.8528 29.9375C23.791 29.9375 23.7306 29.9192 23.6792 29.8848C23.6278 29.8505 23.5877 29.8017 23.5641 29.7446C23.5404 29.6875 23.5343 29.6247 23.5463 29.564C23.5584 29.5034 23.5881 29.4477 23.6318 29.404C23.6755 29.3603 23.7312 29.3306 23.7918 29.3185C23.8525 29.3064 23.9153 29.3126 23.9724 29.3363C24.0295 29.3599 24.0783 29.4 24.1126 29.4514C24.147 29.5028 24.1653 29.5632 24.1653 29.625C24.1652 29.7079 24.1323 29.7873 24.0737 29.8459C24.0151 29.9045 23.9357 29.9374 23.8528 29.9375ZM29.6251 23.5402C29.6869 23.5402 29.7473 23.5586 29.7987 23.5929C29.8501 23.6273 29.8901 23.6761 29.9138 23.7332C29.9374 23.7903 29.9436 23.8531 29.9316 23.9137C29.9195 23.9743 29.8897 24.03 29.846 24.0737C29.8023 24.1174 29.7466 24.1472 29.686 24.1592C29.6254 24.1713 29.5626 24.1651 29.5055 24.1415C29.4484 24.1178 29.3996 24.0778 29.3652 24.0264C29.3309 23.975 29.3126 23.9146 29.3126 23.8527C29.3126 23.7699 29.3456 23.6904 29.4042 23.6319C29.4628 23.5733 29.5422 23.5403 29.6251 23.5402ZM29.6251 17.198C29.6869 17.198 29.7473 17.2163 29.7987 17.2507C29.8501 17.285 29.8901 17.3338 29.9138 17.3909C29.9374 17.448 29.9436 17.5108 29.9316 17.5715C29.9195 17.6321 29.8897 17.6878 29.846 17.7315C29.8023 17.7752 29.7466 17.8049 29.686 17.817C29.6254 17.8291 29.5626 17.8229 29.5055 17.7992C29.4484 17.7756 29.3996 17.7355 29.3652 17.6841C29.3309 17.6327 29.3126 17.5723 29.3126 17.5105C29.3126 17.4276 29.3456 17.3482 29.4042 17.2896C29.4628 17.231 29.5422 17.1981 29.6251 17.198ZM22.7501 22.75H9.25006V9.25H22.7501V22.75Z" fill="#CD202E"/>
<path d="M20.9375 10.625H11.0625C10.9465 10.6251 10.8352 10.6712 10.7532 10.7532C10.6712 10.8352 10.6251 10.9465 10.625 11.0625V20.9375C10.6251 21.0535 10.6712 21.1648 10.7532 21.2468C10.8352 21.3288 10.9465 21.3749 11.0625 21.375H20.9375C21.0535 21.3749 21.1648 21.3288 21.2468 21.2468C21.3288 21.1648 21.3749 21.0535 21.375 20.9375V11.0625C21.3749 10.9465 21.3288 10.8352 21.2468 10.7532C21.1648 10.6712 21.0535 10.6251 20.9375 10.625ZM20.5 20.5H11.5V11.5H20.5V20.5Z" fill="#CD202E"/>
<path d="M19.4375 16.6458C19.5535 16.6457 19.6648 16.5996 19.7468 16.5175C19.8288 16.4355 19.8749 16.3243 19.875 16.2083V13.7395C19.875 13.6235 19.8289 13.5122 19.7469 13.4301C19.6648 13.3481 19.5535 13.302 19.4375 13.302C19.3215 13.302 19.2102 13.3481 19.1281 13.4301C19.0461 13.5122 19 13.6235 19 13.7395V16.2083C19.0001 16.3243 19.0462 16.4355 19.1282 16.5175C19.2102 16.5996 19.3215 16.6457 19.4375 16.6458Z" fill="#CD202E"/>
</svg>
