<svg width="33" height="32" viewBox="0 0 33 32" fill="none" xmlns="http://www.w3.org/2000/svg">
<path fill-rule="evenodd" clip-rule="evenodd" d="M17.7333 15C18.2856 15 18.7333 15.4477 18.7333 16V16.0133C18.7333 16.5656 18.2856 17.0133 17.7333 17.0133C17.1811 17.0133 16.7333 16.5656 16.7333 16.0133V16C16.7333 15.4477 17.1811 15 17.7333 15Z" fill="white"/>
<path fill-rule="evenodd" clip-rule="evenodd" d="M3.39999 28C3.39999 27.4477 3.84771 27 4.39999 27H28.4C28.9523 27 29.4 27.4477 29.4 28C29.4 28.5523 28.9523 29 28.4 29H4.39999C3.84771 29 3.39999 28.5523 3.39999 28Z" fill="white"/>
<path fill-rule="evenodd" clip-rule="evenodd" d="M9.73332 5C9.29129 5 8.86737 5.17559 8.55481 5.48816C8.24225 5.80072 8.06665 6.22464 8.06665 6.66667V28C8.06665 28.5523 7.61894 29 7.06665 29C6.51437 29 6.06665 28.5523 6.06665 28V6.66667C6.06665 5.69421 6.45296 4.76158 7.14059 4.07394C7.82823 3.38631 8.76086 3 9.73332 3H17.7333C18.2856 3 18.7333 3.44772 18.7333 4C18.7333 4.55228 18.2856 5 17.7333 5H9.73332ZM23.0667 17C23.6189 17 24.0667 17.4477 24.0667 18V28C24.0667 28.5523 23.6189 29 23.0667 29C22.5144 29 22.0667 28.5523 22.0667 28V18C22.0667 17.4477 22.5144 17 23.0667 17Z" fill="white"/>
<path fill-rule="evenodd" clip-rule="evenodd" d="M23.7738 4.62624C24.1643 5.01676 24.1643 5.64993 23.7738 6.04045L21.4809 8.33334H28.4C28.9523 8.33334 29.4 8.78106 29.4 9.33334C29.4 9.88563 28.9523 10.3333 28.4 10.3333H21.4809L23.7738 12.6262C24.1643 13.0168 24.1643 13.6499 23.7738 14.0405C23.3832 14.431 22.7501 14.431 22.3595 14.0405L18.3595 10.0405C18.2637 9.94457 18.1913 9.83407 18.1425 9.71613C18.0936 9.59822 18.0667 9.46893 18.0667 9.33334C18.0667 9.19775 18.0936 9.06847 18.1425 8.95056C18.1913 8.83261 18.2637 8.72211 18.3595 8.62624L22.3595 4.62624C22.7501 4.23571 23.3832 4.23571 23.7738 4.62624Z" fill="white"/>
</svg>
