<svg width="25" height="24" viewBox="0 0 25 24" fill="none" xmlns="http://www.w3.org/2000/svg">
<path fill-rule="evenodd" clip-rule="evenodd" d="M12.2 7.25C12.6142 7.25 12.95 7.58579 12.95 8V11.6893L14.7303 13.4697C15.0232 13.7626 15.0232 14.2374 14.7303 14.5303C14.4374 14.8232 13.9625 14.8232 13.6697 14.5303L11.6697 12.5303C11.529 12.3897 11.45 12.1989 11.45 12V8C11.45 7.58579 11.7858 7.25 12.2 7.25Z" fill="#CED4DA"/>
<path fill-rule="evenodd" clip-rule="evenodd" d="M17.6281 5.69613C16.1008 4.36332 14.1363 3.63944 12.1094 3.66259C10.0825 3.68574 8.13504 4.4543 6.63861 5.82165C6.33283 6.10105 5.85844 6.07967 5.57903 5.77388C5.29962 5.4681 5.32101 4.99371 5.62679 4.7143C7.3953 3.09835 9.69683 2.19005 12.0923 2.16268C14.4877 2.13532 16.8094 2.99082 18.6144 4.56596C20.4193 6.14109 21.5812 8.3256 21.8783 10.7027C22.1755 13.0798 21.5871 15.4831 20.2254 17.4541C18.8637 19.425 16.824 20.8257 14.4956 21.3888C12.1671 21.952 9.71277 21.6381 7.60091 20.5072C6.12656 19.7177 4.89116 18.5686 3.99997 17.1811V20C3.99997 20.4142 3.66418 20.75 3.24997 20.75C2.83576 20.75 2.49997 20.4142 2.49997 20V15C2.49997 14.5858 2.83576 14.25 3.24997 14.25H3.73247C3.74412 14.2497 3.75575 14.2497 3.76734 14.25H8.24997C8.66418 14.25 8.99997 14.5858 8.99997 15C8.99997 15.4142 8.66418 15.75 8.24997 15.75H4.9007C5.66402 17.2025 6.84783 18.4024 8.30902 19.1849C10.096 20.1418 12.1727 20.4074 14.1429 19.9309C16.1132 19.4544 17.8391 18.2692 18.9913 16.6015C20.1435 14.9337 20.6414 12.9002 20.3899 10.8888C20.1385 8.87737 19.1554 7.02893 17.6281 5.69613Z" fill="#CED4DA"/>
</svg>
