<svg width="25" height="24" viewBox="0 0 25 24" fill="none" xmlns="http://www.w3.org/2000/svg">
<path fill-rule="evenodd" clip-rule="evenodd" d="M11.8697 2.46967C12.1625 2.17678 12.6374 2.17678 12.9303 2.46967L21.9303 11.4697C22.1448 11.6842 22.209 12.0068 22.0929 12.287C21.9768 12.5673 21.7033 12.75 21.4 12.75H19.4C18.9858 12.75 18.65 12.4142 18.65 12C18.65 11.5858 18.9858 11.25 19.4 11.25H19.5893L12.4 4.06066L5.21065 11.25H5.39999C5.8142 11.25 6.14999 11.5858 6.14999 12C6.14999 12.4142 5.8142 12.75 5.39999 12.75H3.39999C3.09664 12.75 2.82316 12.5673 2.70708 12.287C2.59099 12.0068 2.65516 11.6842 2.86966 11.4697L11.8697 2.46967Z" fill="#CD202E"/>
<path fill-rule="evenodd" clip-rule="evenodd" d="M5.39999 11.25C5.81421 11.25 6.14999 11.5858 6.14999 12V19C6.14999 19.3315 6.28169 19.6495 6.51611 19.8839C6.75053 20.1183 7.06847 20.25 7.39999 20.25H17.4C17.7315 20.25 18.0495 20.1183 18.2839 19.8839C18.5183 19.6495 18.65 19.3315 18.65 19V12C18.65 11.5858 18.9858 11.25 19.4 11.25C19.8142 11.25 20.15 11.5858 20.15 12V19C20.15 19.7293 19.8603 20.4288 19.3445 20.9445C18.8288 21.4603 18.1293 21.75 17.4 21.75H7.39999C6.67065 21.75 5.97117 21.4603 5.45545 20.9445C4.93973 20.4288 4.64999 19.7293 4.64999 19V12C4.64999 11.5858 4.98578 11.25 5.39999 11.25Z" fill="#CD202E"/>
<path fill-rule="evenodd" clip-rule="evenodd" d="M9.64999 12C9.64999 11.5858 9.98578 11.25 10.4 11.25H14.4C14.8142 11.25 15.15 11.5858 15.15 12V16C15.15 16.4142 14.8142 16.75 14.4 16.75H10.4C9.98578 16.75 9.64999 16.4142 9.64999 16V12ZM11.15 12.75V15.25H13.65V12.75H11.15Z" fill="#CD202E"/>
</svg>
