<svg width="20" height="20" viewBox="0 0 20 20" fill="none" xmlns="http://www.w3.org/2000/svg">
<path fill-rule="evenodd" clip-rule="evenodd" d="M10 3.125C6.20304 3.125 3.125 6.20304 3.125 10C3.125 13.797 6.20304 16.875 10 16.875C13.797 16.875 16.875 13.797 16.875 10C16.875 6.20304 13.797 3.125 10 3.125ZM1.875 10C1.875 5.51269 5.51269 1.875 10 1.875C14.4873 1.875 18.125 5.51269 18.125 10C18.125 14.4873 14.4873 18.125 10 18.125C5.51269 18.125 1.875 14.4873 1.875 10Z" fill="#212529"/>
<path fill-rule="evenodd" clip-rule="evenodd" d="M9.375 6.66675C9.375 6.32157 9.65482 6.04175 10 6.04175H10.0083C10.3535 6.04175 10.6333 6.32157 10.6333 6.66675C10.6333 7.01193 10.3535 7.29175 10.0083 7.29175H10C9.65482 7.29175 9.375 7.01193 9.375 6.66675Z" fill="#212529"/>
<path fill-rule="evenodd" clip-rule="evenodd" d="M8.54169 10C8.54169 9.65482 8.82151 9.375 9.16669 9.375H10C10.3452 9.375 10.625 9.65482 10.625 10V12.7083H10.8334C11.1785 12.7083 11.4584 12.9882 11.4584 13.3333C11.4584 13.6785 11.1785 13.9583 10.8334 13.9583H10C9.65484 13.9583 9.37502 13.6785 9.37502 13.3333V10.625H9.16669C8.82151 10.625 8.54169 10.3452 8.54169 10Z" fill="#212529"/>
</svg>
