<svg width="20" height="20" viewBox="0 0 20 20" fill="none" xmlns="http://www.w3.org/2000/svg">
<path fill-rule="evenodd" clip-rule="evenodd" d="M3.33333 3.125C3.27808 3.125 3.22509 3.14695 3.18602 3.18602C3.14695 3.22509 3.125 3.27808 3.125 3.33333V15C3.125 15.0553 3.14695 15.1082 3.18602 15.1473C3.22509 15.1864 3.27808 15.2083 3.33333 15.2083H8.33333C8.94112 15.2083 9.52402 15.4498 9.95379 15.8795C9.96944 15.8952 9.98485 15.9111 10 15.9271C10.0152 15.9111 10.0306 15.8952 10.0462 15.8795C10.476 15.4498 11.0589 15.2083 11.6667 15.2083H16.6667C16.7219 15.2083 16.7749 15.1864 16.814 15.1473C16.853 15.1082 16.875 15.0553 16.875 15V3.33333C16.875 3.27808 16.8531 3.22509 16.814 3.18602C16.7749 3.14695 16.7219 3.125 16.6667 3.125H11.6667C11.3904 3.125 11.1254 3.23475 10.9301 3.4301C10.7347 3.62545 10.625 3.8904 10.625 4.16667C10.625 4.51184 10.3452 4.79167 10 4.79167C9.65482 4.79167 9.375 4.51184 9.375 4.16667C9.375 3.8904 9.26525 3.62545 9.0699 3.4301C8.87455 3.23475 8.6096 3.125 8.33333 3.125H3.33333ZM10 2.59379C9.98485 2.57773 9.96944 2.56187 9.95379 2.54621C9.52402 2.11644 8.94112 1.875 8.33333 1.875H3.33333C2.94656 1.875 2.57563 2.02865 2.30214 2.30214C2.02865 2.57563 1.875 2.94656 1.875 3.33333V15C1.875 15.3868 2.02864 15.7577 2.30214 16.0312C2.57563 16.3047 2.94656 16.4583 3.33333 16.4583H8.33333C8.6096 16.4583 8.87455 16.5681 9.0699 16.7634C9.26525 16.9588 9.375 17.2237 9.375 17.5C9.375 17.8452 9.65482 18.125 10 18.125C10.3452 18.125 10.625 17.8452 10.625 17.5C10.625 17.2237 10.7347 16.9588 10.9301 16.7634C11.1254 16.5681 11.3904 16.4583 11.6667 16.4583H16.6667C17.0534 16.4583 17.4244 16.3047 17.6979 16.0312C17.9714 15.7577 18.125 15.3868 18.125 15V3.33333C18.125 2.94656 17.9714 2.57563 17.6979 2.30214C17.4244 2.02864 17.0534 1.875 16.6667 1.875H11.6667C11.0589 1.875 10.476 2.11644 10.0462 2.54621C10.0306 2.56187 10.0152 2.57773 10 2.59379Z" fill="#212529"/>
<path fill-rule="evenodd" clip-rule="evenodd" d="M10 3.54163C10.3452 3.54163 10.625 3.82145 10.625 4.16663V17.5C10.625 17.8451 10.3452 18.125 10 18.125C9.65482 18.125 9.375 17.8451 9.375 17.5V4.16663C9.375 3.82145 9.65482 3.54163 10 3.54163Z" fill="#212529"/>
<path fill-rule="evenodd" clip-rule="evenodd" d="M5.20831 5.83337C5.20831 5.4882 5.48813 5.20837 5.83331 5.20837H6.66665C7.01182 5.20837 7.29165 5.4882 7.29165 5.83337C7.29165 6.17855 7.01182 6.45837 6.66665 6.45837H5.83331C5.48813 6.45837 5.20831 6.17855 5.20831 5.83337Z" fill="#212529"/>
<path fill-rule="evenodd" clip-rule="evenodd" d="M5.20831 9.16663C5.20831 8.82145 5.48813 8.54163 5.83331 8.54163H6.66665C7.01182 8.54163 7.29165 8.82145 7.29165 9.16663C7.29165 9.5118 7.01182 9.79163 6.66665 9.79163H5.83331C5.48813 9.79163 5.20831 9.5118 5.20831 9.16663Z" fill="#212529"/>
<path fill-rule="evenodd" clip-rule="evenodd" d="M12.7083 5.83337C12.7083 5.4882 12.9881 5.20837 13.3333 5.20837H14.1666C14.5118 5.20837 14.7916 5.4882 14.7916 5.83337C14.7916 6.17855 14.5118 6.45837 14.1666 6.45837H13.3333C12.9881 6.45837 12.7083 6.17855 12.7083 5.83337Z" fill="#212529"/>
<path fill-rule="evenodd" clip-rule="evenodd" d="M12.7083 9.16663C12.7083 8.82145 12.9881 8.54163 13.3333 8.54163H14.1666C14.5118 8.54163 14.7916 8.82145 14.7916 9.16663C14.7916 9.5118 14.5118 9.79163 14.1666 9.79163H13.3333C12.9881 9.79163 12.7083 9.5118 12.7083 9.16663Z" fill="#212529"/>
<path fill-rule="evenodd" clip-rule="evenodd" d="M12.7083 12.5C12.7083 12.1548 12.9881 11.875 13.3333 11.875H14.1666C14.5118 11.875 14.7916 12.1548 14.7916 12.5C14.7916 12.8452 14.5118 13.125 14.1666 13.125H13.3333C12.9881 13.125 12.7083 12.8452 12.7083 12.5Z" fill="#212529"/>
</svg>
