<svg width="25" height="24" viewBox="0 0 25 24" fill="none" xmlns="http://www.w3.org/2000/svg">
<path fill-rule="evenodd" clip-rule="evenodd" d="M3.55546 4.05546C4.07118 3.53973 4.77065 3.25 5.5 3.25H12.5C13.2293 3.25 13.9288 3.53973 14.4445 4.05546C14.9603 4.57118 15.25 5.27065 15.25 6V8C15.25 8.41421 14.9142 8.75 14.5 8.75C14.0858 8.75 13.75 8.41421 13.75 8V6C13.75 5.66848 13.6183 5.35054 13.3839 5.11612C13.1495 4.8817 12.8315 4.75 12.5 4.75H5.5C5.16848 4.75 4.85054 4.8817 4.61612 5.11612C4.3817 5.35054 4.25 5.66848 4.25 6V18C4.25 18.3315 4.3817 18.6495 4.61612 18.8839C4.85054 19.1183 5.16848 19.25 5.5 19.25H12.5C12.8315 19.25 13.1495 19.1183 13.3839 18.8839C13.6183 18.6495 13.75 18.3315 13.75 18V16C13.75 15.5858 14.0858 15.25 14.5 15.25C14.9142 15.25 15.25 15.5858 15.25 16V18C15.25 18.7293 14.9603 19.4288 14.4445 19.9445C13.9288 20.4603 13.2293 20.75 12.5 20.75H5.5C4.77065 20.75 4.07118 20.4603 3.55546 19.9445C3.03973 19.4288 2.75 18.7293 2.75 18V6C2.75 5.27065 3.03973 4.57118 3.55546 4.05546Z" fill="#CD202E"/>
<path fill-rule="evenodd" clip-rule="evenodd" d="M17.9697 8.46967C18.2626 8.17678 18.7374 8.17678 19.0303 8.46967L22.0303 11.4697C22.3232 11.7626 22.3232 12.2374 22.0303 12.5303L19.0303 15.5303C18.7374 15.8232 18.2626 15.8232 17.9697 15.5303C17.6768 15.2374 17.6768 14.7626 17.9697 14.4697L19.6893 12.75H7.5C7.08579 12.75 6.75 12.4142 6.75 12C6.75 11.5858 7.08579 11.25 7.5 11.25H19.6893L17.9697 9.53033C17.6768 9.23744 17.6768 8.76256 17.9697 8.46967Z" fill="#CD202E"/>
</svg>
