<svg width="20" height="20" viewBox="0 0 20 20" fill="none" xmlns="http://www.w3.org/2000/svg">
<path fill-rule="evenodd" clip-rule="evenodd" d="M5.83335 9.79163C5.25806 9.79163 4.79169 10.258 4.79169 10.8333V15.8333C4.79169 16.4086 5.25806 16.875 5.83335 16.875H14.1667C14.742 16.875 15.2084 16.4086 15.2084 15.8333V10.8333C15.2084 10.258 14.742 9.79163 14.1667 9.79163H5.83335ZM3.54169 10.8333C3.54169 9.56764 4.5677 8.54163 5.83335 8.54163H14.1667C15.4323 8.54163 16.4584 9.56764 16.4584 10.8333V15.8333C16.4584 17.0989 15.4323 18.125 14.1667 18.125H5.83335C4.5677 18.125 3.54169 17.0989 3.54169 15.8333V10.8333Z" fill="#212529"/>
<path fill-rule="evenodd" clip-rule="evenodd" d="M10 13.125C9.88496 13.125 9.79169 13.2183 9.79169 13.3333C9.79169 13.4484 9.88496 13.5417 10 13.5417C10.1151 13.5417 10.2084 13.4484 10.2084 13.3333C10.2084 13.2183 10.1151 13.125 10 13.125ZM8.54169 13.3333C8.54169 12.5279 9.1946 11.875 10 11.875C10.8054 11.875 11.4584 12.5279 11.4584 13.3333C11.4584 14.1387 10.8054 14.7917 10 14.7917C9.1946 14.7917 8.54169 14.1387 8.54169 13.3333Z" fill="#212529"/>
<path fill-rule="evenodd" clip-rule="evenodd" d="M10 3.125C9.28173 3.125 8.59285 3.41034 8.08494 3.91825C7.57703 4.42616 7.29169 5.11504 7.29169 5.83333V9.16667C7.29169 9.51184 7.01186 9.79167 6.66669 9.79167C6.32151 9.79167 6.04169 9.51184 6.04169 9.16667V5.83333C6.04169 4.78352 6.45872 3.7767 7.20106 3.03437C7.94339 2.29204 8.95021 1.875 10 1.875C11.0498 1.875 12.0567 2.29204 12.799 3.03437C13.5413 3.7767 13.9584 4.78352 13.9584 5.83333V9.16667C13.9584 9.51184 13.6785 9.79167 13.3334 9.79167C12.9882 9.79167 12.7084 9.51184 12.7084 9.16667V5.83333C12.7084 5.11504 12.423 4.42616 11.9151 3.91825C11.4072 3.41034 10.7183 3.125 10 3.125Z" fill="#212529"/>
</svg>
