<svg width="25" height="24" viewBox="0 0 25 24" fill="none" xmlns="http://www.w3.org/2000/svg">
<path fill-rule="evenodd" clip-rule="evenodd" d="M12.6 3.75C10.8051 3.75 9.35001 5.20507 9.35001 7C9.35001 8.79493 10.8051 10.25 12.6 10.25C14.3949 10.25 15.85 8.79493 15.85 7C15.85 5.20507 14.3949 3.75 12.6 3.75ZM7.85001 7C7.85001 4.37665 9.97665 2.25 12.6 2.25C15.2234 2.25 17.35 4.37665 17.35 7C17.35 9.62335 15.2234 11.75 12.6 11.75C9.97665 11.75 7.85001 9.62335 7.85001 7Z" fill="#CED4DA"/>
<path fill-rule="evenodd" clip-rule="evenodd" d="M10.6 15.75C9.73805 15.75 8.9114 16.0924 8.30191 16.7019C7.69242 17.3114 7.35001 18.138 7.35001 19V21C7.35001 21.4142 7.01422 21.75 6.60001 21.75C6.18579 21.75 5.85001 21.4142 5.85001 21V19C5.85001 17.7402 6.35045 16.532 7.24125 15.6412C8.13205 14.7504 9.34023 14.25 10.6 14.25H14.6C15.8598 14.25 17.068 14.7504 17.9588 15.6412C18.8496 16.532 19.35 17.7402 19.35 19V21C19.35 21.4142 19.0142 21.75 18.6 21.75C18.1858 21.75 17.85 21.4142 17.85 21V19C17.85 18.138 17.5076 17.3114 16.8981 16.7019C16.2886 16.0924 15.462 15.75 14.6 15.75H10.6Z" fill="#CED4DA"/>
</svg>
