<svg width="48" height="49" viewBox="0 0 48 49" fill="none" xmlns="http://www.w3.org/2000/svg">
<path d="M18 10.5917H36C37.0609 10.5917 38.0783 11.0132 38.8284 11.7633C39.5786 12.5135 40 13.5309 40 14.5917V32.5917M39.646 40.2397C39.3289 40.941 38.8163 41.5358 38.1696 41.953C37.5229 42.3702 36.7696 42.592 36 42.5917H12C10.9391 42.5917 9.92172 42.1703 9.17157 41.4202C8.42143 40.67 8 39.6526 8 38.5917V14.5917C7.99958 13.8224 8.22105 13.0692 8.63786 12.4225C9.05468 11.7759 9.64914 11.2631 10.35 10.9457L39.646 40.2397Z" stroke="#CD202E" stroke-width="1.5" stroke-linecap="round" stroke-linejoin="round"/>
<path d="M32 6.59174V14.5917" stroke="#CD202E" stroke-width="1.5" stroke-linecap="round" stroke-linejoin="round"/>
<path d="M16 6.59174V8.59174" stroke="#CD202E" stroke-width="1.5" stroke-linecap="round" stroke-linejoin="round"/>
<path d="M30 22.5917H40M8 22.5917H22H8Z" stroke="#CD202E" stroke-width="1.5" stroke-linecap="round" stroke-linejoin="round"/>
<path d="M22 30.5917H24" stroke="#CD202E" stroke-width="1.5" stroke-linecap="round" stroke-linejoin="round"/>
<path d="M24 30.5917V36.5917" stroke="#CD202E" stroke-width="1.5" stroke-linecap="round" stroke-linejoin="round"/>
<path d="M6 6.59174L42 42.5917" stroke="#CD202E" stroke-width="1.5" stroke-linecap="round" stroke-linejoin="round"/>
</svg>
