<?xml version="1.0" standalone="no"?>
<!DOCTYPE svg PUBLIC "-//W3C//DTD SVG 20010904//EN"
 "http://www.w3.org/TR/2001/REC-SVG-20010904/DTD/svg10.dtd">
<svg version="1.0" xmlns="http://www.w3.org/2000/svg"
 width="512.000000pt" height="512.000000pt" viewBox="0 0 512.000000 512.000000"
 preserveAspectRatio="xMidYMid meet">

<g transform="translate(0.000000,512.000000) scale(0.100000,-0.100000)"
fill="#CD202E" stroke="#CD202E">
<path d="M1237 5109 c-35 -21 -47 -72 -47 -203 l0 -124 -252 -4 -253 -3 -76
-36 c-102 -49 -179 -126 -228 -228 l-36 -76 -3 -252 -4 -253 -126 0 c-101 0
-134 -4 -162 -18 -66 -33 -66 -111 0 -144 28 -14 61 -18 163 -18 l127 0 0
-170 0 -170 -145 0 c-131 0 -147 -2 -165 -20 -28 -28 -36 -69 -19 -99 24 -43
53 -51 197 -51 l132 0 0 -170 0 -170 -142 0 c-149 -1 -164 -4 -186 -47 -19
-35 -14 -63 17 -94 l29 -29 141 0 141 0 0 -170 0 -170 -141 0 -141 0 -29 -29
c-31 -31 -36 -59 -17 -94 22 -43 37 -46 186 -47 l142 0 0 -170 0 -170 -132 0
c-144 0 -173 -8 -197 -51 -17 -30 -9 -71 19 -99 18 -18 34 -20 165 -20 l145 0
0 -170 0 -170 -127 0 c-102 0 -135 -4 -163 -18 -66 -33 -66 -111 0 -144 28
-14 61 -18 163 -18 l127 0 0 -45 c0 -58 22 -100 57 -112 38 -12 67 -6 89 19
18 19 19 82 24 1687 5 1610 6 1667 24 1704 24 49 94 119 143 143 37 18 92 19
1883 19 1791 0 1846 -1 1883 -19 49 -24 119 -94 143 -143 18 -37 19 -92 19
-1883 0 -1791 -1 -1846 -19 -1883 -24 -49 -94 -119 -143 -143 -37 -18 -95 -19
-1858 -22 -1287 -2 -1833 1 -1864 8 -100 25 -183 116 -206 227 -16 77 -39 103
-89 103 -34 0 -70 -26 -81 -59 -10 -33 12 -136 44 -200 44 -86 127 -165 220
-210 l76 -36 253 -3 252 -4 0 -126 c0 -101 4 -134 18 -162 33 -66 111 -66 144
0 14 28 18 61 18 163 l0 127 170 0 170 0 0 -145 c0 -131 2 -147 20 -165 28
-28 69 -36 99 -19 43 24 51 53 51 197 l0 132 170 0 170 0 0 -142 c1 -149 4
-164 47 -186 35 -19 63 -14 94 17 l29 29 0 141 0 141 170 0 170 0 0 -141 0
-141 29 -29 c31 -31 59 -36 94 -17 43 22 46 37 47 186 l0 142 170 0 170 0 0
-132 c0 -144 8 -173 51 -197 30 -17 71 -9 99 19 18 18 20 34 20 165 l0 145
170 0 170 0 0 -127 c0 -102 4 -135 18 -163 33 -66 111 -66 144 0 14 28 18 61
18 162 l0 126 253 4 252 3 76 36 c102 49 179 126 228 228 l36 76 3 253 4 252
126 0 c144 0 189 14 206 63 14 40 -3 79 -44 99 -28 14 -61 18 -162 18 l-128 0
0 170 0 170 145 0 c131 0 147 2 165 20 28 28 36 69 19 99 -24 43 -53 51 -196
51 l-133 0 0 170 0 170 143 0 c148 1 163 4 185 47 19 35 14 63 -17 94 l-29 29
-141 0 -141 0 0 170 0 170 141 0 141 0 29 29 c31 31 36 59 17 94 -22 43 -37
46 -185 47 l-143 0 0 170 0 170 133 0 c143 0 172 8 196 51 17 30 9 71 -19 99
-18 18 -34 20 -165 20 l-145 0 0 170 0 170 128 0 c101 0 134 4 162 18 41 20
58 59 44 100 -17 48 -62 62 -206 62 l-126 0 -4 253 -3 252 -36 76 c-49 102
-126 179 -228 228 l-76 36 -252 3 -253 4 0 126 c0 144 -14 189 -62 206 -41 14
-80 -3 -100 -44 -14 -28 -18 -61 -18 -162 l0 -128 -170 0 -170 0 0 145 c0 131
-2 147 -20 165 -28 28 -69 36 -99 19 -43 -24 -51 -53 -51 -196 l0 -133 -170 0
-170 0 0 143 c-1 148 -4 163 -47 185 -35 19 -63 14 -94 -17 l-29 -29 0 -141 0
-141 -170 0 -170 0 0 141 0 141 -29 29 c-31 31 -59 36 -94 17 -43 -22 -46 -37
-47 -185 l0 -143 -170 0 -170 0 0 133 c0 143 -8 172 -51 196 -30 17 -71 9 -99
-19 -18 -18 -20 -34 -20 -165 l0 -145 -170 0 -170 0 0 125 c0 135 -12 185 -48
204 -26 14 -62 14 -85 0z"/>
<path d="M920 4263 c-36 -13 -60 -47 -60 -83 0 -96 131 -110 163 -18 11 32
-14 79 -49 94 -18 8 -35 14 -36 13 -2 0 -10 -3 -18 -6z"/>
<path d="M4163 4262 c-31 -5 -63 -48 -63 -84 0 -65 94 -104 140 -58 60 60 7
157 -77 142z"/>
<path d="M1413 3920 c-85 -17 -159 -77 -197 -159 -20 -44 -21 -60 -21 -436 l0
-390 25 -49 c43 -84 148 -156 227 -156 35 0 86 -50 86 -85 0 -41 -47 -80 -106
-88 -89 -12 -162 -67 -209 -157 l-23 -45 0 -475 c0 -463 1 -476 21 -521 27
-59 85 -116 143 -143 39 -18 65 -21 176 -21 114 0 136 3 181 23 87 39 146 118
159 214 8 56 42 95 89 103 17 4 107 5 200 3 l168 -3 29 -33 c19 -21 29 -43 29
-65 0 -48 42 -127 90 -170 81 -74 67 -72 533 -75 l417 -3 15 -29 c94 -181 371
-173 456 15 25 54 25 156 0 210 -85 188 -362 196 -457 14 l-15 -29 -408 0
-409 0 -25 29 c-14 17 -27 48 -30 75 -9 63 -37 115 -87 160 -72 64 -93 70
-301 74 -213 4 -275 -5 -342 -49 -54 -35 -104 -107 -112 -158 -12 -71 -16 -83
-40 -107 -23 -23 -31 -24 -138 -24 -110 0 -115 1 -141 26 l-26 27 0 457 0 458
31 26 c19 16 43 26 62 26 46 0 126 41 169 86 146 153 56 383 -165 424 -35 7
-59 18 -74 36 -23 25 -23 26 -23 393 l0 368 26 27 27 26 1137 0 1137 0 27 -26
26 -27 0 -712 0 -713 -31 -26 c-30 -25 -34 -26 -179 -26 l-148 0 -10 28 c-12
34 -74 96 -113 112 l-29 12 0 274 c0 151 4 274 8 274 5 0 28 13 53 30 126 83
146 266 43 380 -51 56 -123 83 -204 78 -73 -6 -113 -23 -159 -69 -121 -120
-94 -325 53 -404 l36 -20 0 -271 0 -271 -24 -11 c-39 -17 -93 -70 -110 -107
l-17 -35 -320 0 -321 0 -29 29 -29 29 0 151 c0 143 1 150 21 156 33 11 98 74
122 119 30 57 30 165 0 222 -100 190 -357 192 -456 4 -26 -49 -28 -63 -25
-125 3 -38 12 -84 21 -102 22 -42 80 -98 117 -113 l30 -12 0 -162 c0 -140 3
-167 21 -206 27 -60 74 -107 134 -136 49 -24 54 -24 381 -24 l332 0 12 -30
c19 -45 102 -115 154 -130 111 -31 222 11 286 108 l34 52 156 0 c141 0 159 2
205 24 28 12 67 42 88 66 77 84 72 30 72 845 0 723 0 730 -21 776 -27 58 -85
116 -143 143 -46 21 -47 21 -1176 23 -621 0 -1149 -3 -1172 -7z m1802 -705
c53 -52 16 -139 -60 -139 -73 0 -106 84 -55 139 32 34 82 34 115 0z m-1029
-339 c52 -44 30 -126 -36 -141 -81 -18 -133 80 -74 139 33 33 74 34 110 2z
m1007 -668 c79 -41 52 -158 -36 -158 -85 0 -113 119 -37 157 31 16 46 16 73 1z
m534 -870 c51 -48 15 -138 -56 -138 -47 0 -81 32 -81 79 0 72 84 109 137 59z"/>
<path d="M882 997 c-60 -63 6 -164 89 -135 34 12 63 64 52 95 -22 63 -99 85
-141 40z"/>
<path d="M4125 995 c-71 -70 24 -177 109 -122 32 21 42 67 22 105 -26 50 -91
58 -131 17z"/>
</g>
</svg>
