<?xml version="1.0" standalone="no"?>
<!DOCTYPE svg PUBLIC "-//W3C//DTD SVG 20010904//EN"
 "http://www.w3.org/TR/2001/REC-SVG-20010904/DTD/svg10.dtd">
<svg version="1.0" xmlns="http://www.w3.org/2000/svg"
 width="512.000000pt" height="512.000000pt" viewBox="0 0 512.000000 512.000000"
 preserveAspectRatio="xMidYMid meet">

<g transform="translate(0.000000,512.000000) scale(0.100000,-0.100000)"
fill="#CD202E" stroke="#CD202E">
<path d="M443 4956 c-27 -23 -28 -28 -31 -135 l-4 -111 -89 0 c-168 0 -244
-34 -293 -131 l-26 -53 0 -2095 c0 -1447 3 -2108 11 -2134 13 -49 73 -115 124
-138 37 -17 79 -19 588 -19 l548 0 24 25 c32 31 32 69 0 100 -23 24 -28 25
-170 25 l-145 0 0 960 0 960 340 0 340 0 0 -960 0 -960 -45 0 c-82 0 -126 -78
-72 -128 l23 -22 1690 0 c1612 0 1691 1 1729 19 51 23 111 89 124 138 8 26 11
687 11 2134 l0 2095 -26 53 c-49 97 -125 131 -293 131 l-89 0 -4 111 c-3 107
-4 112 -31 135 -27 23 -34 24 -182 24 -84 0 -161 -3 -170 -6 -32 -13 -45 -59
-45 -164 l0 -100 -270 0 -270 0 0 101 c0 164 -5 168 -212 169 -152 0 -158 -1
-185 -24 -27 -23 -28 -28 -31 -135 l-4 -111 -269 0 -269 0 0 110 c0 104 -1
112 -25 135 -24 24 -27 25 -185 25 -158 0 -161 -1 -185 -25 -24 -23 -25 -31
-25 -135 l0 -110 -269 0 -269 0 -4 111 c-3 107 -4 112 -31 135 -27 23 -33 24
-185 24 -207 -1 -212 -5 -212 -169 l0 -101 -270 0 -270 0 0 100 c0 105 -13
151 -45 164 -9 3 -86 6 -170 6 -148 0 -155 -1 -182 -24z m247 -326 l0 -200
-65 0 -65 0 0 200 0 200 65 0 65 0 0 -200z m970 0 l0 -200 -65 0 -65 0 0 200
0 200 65 0 65 0 0 -200z m960 0 l0 -200 -60 0 -60 0 0 200 0 200 60 0 60 0 0
-200z m970 0 l0 -200 -65 0 -65 0 0 200 0 200 65 0 65 0 0 -200z m970 0 l0
-200 -65 0 -65 0 0 200 0 200 65 0 65 0 0 -200z m-3214 -704 c12 -49 30 -55
174 -58 l135 -3 3 -337 2 -338 -135 0 -135 0 0 180 c0 244 14 230 -230 230
l-180 0 0 135 0 135 56 0 c67 0 89 10 102 50 l11 30 95 0 c93 0 96 -1 102 -24z
m-518 -193 l3 -133 -251 0 -251 0 -24 -25 -25 -24 0 -231 0 -231 25 -24 c23
-24 31 -25 134 -25 l110 0 3 -185 c4 -237 -2 -229 163 -233 l115 -4 0 -1164 0
-1164 -315 0 -316 0 -24 25 -25 24 0 1766 0 1765 338 -2 337 -3 3 -132z m1652
-618 l0 -755 -130 0 -130 0 0 180 c0 244 14 230 -230 230 l-180 0 0 550 0 550
335 0 335 0 0 -755z m830 0 l0 -755 -90 0 c-102 0 -135 -11 -149 -51 l-10 -29
-96 0 c-92 0 -96 1 -105 24 -16 43 -47 56 -137 56 l-83 0 0 755 0 755 335 0
335 0 0 -755z m830 -415 l0 -1170 -249 0 -248 0 -27 -26 -26 -27 0 -227 c0
-290 -9 -273 157 -280 l118 -5 6 -190 c3 -104 6 -191 7 -192 1 -1 15 -9 32
-18 20 -10 59 -15 130 -15 l100 0 0 -130 0 -130 -340 0 -340 0 0 750 0 750
165 0 c187 0 224 9 244 57 9 21 11 92 9 247 l-3 218 -28 24 c-27 23 -32 24
-208 24 l-179 0 0 748 c0 412 3 752 7 755 3 4 156 7 340 7 l333 0 0 -1170z
m583 1163 l247 -6 0 -1759 0 -1759 -25 -24 -24 -25 -316 0 -315 0 0 130 0 130
170 0 c198 0 222 7 240 68 8 25 10 171 8 450 l-3 414 -28 24 c-27 23 -32 24
-208 24 l-179 0 0 1163 c0 640 3 1167 7 1170 8 9 112 9 426 0z m-3483 -543 l0
-130 -405 0 -405 0 0 130 0 130 405 0 405 0 0 -130z m410 -410 l0 -130 -475 0
-475 0 0 123 c0 68 3 127 7 130 3 4 217 7 475 7 l468 0 0 -130z m420 -420 l0
-130 -545 0 -545 0 0 130 0 130 545 0 545 0 0 -130z m0 -666 l0 -386 29 -29
29 -29 176 0 176 0 0 -545 0 -545 -335 0 -335 0 0 960 0 960 130 0 130 0 0
-386z m1240 -784 l0 -750 -335 0 -335 0 0 545 0 545 176 0 176 0 29 29 29 29
0 176 0 176 130 0 130 0 0 -750z m1240 210 l0 -130 -405 0 -405 0 0 130 0 130
405 0 405 0 0 -130z"/>
</g>
</svg>
