<svg width="48" height="48" viewBox="0 0 48 48" fill="none" xmlns="http://www.w3.org/2000/svg">
<path fill-rule="evenodd" clip-rule="evenodd" d="M18.7345 8.36918C19.7348 6.37862 21.7722 5.12231 24.0001 5.12231C26.2279 5.12231 28.2653 6.37862 29.2656 8.36918C33.234 16.2656 38.6077 26.9584 42.3168 34.3385C43.2348 36.1654 43.1404 38.3376 42.0673 40.0778C40.9942 41.8182 39.0958 42.8779 37.0512 42.8779H10.9489C8.90438 42.8779 7.00595 41.8182 5.93283 40.0778C4.8597 38.3376 4.76532 36.1654 5.68339 34.3385C9.39241 26.9584 14.7662 16.2656 18.7345 8.36918Z" fill="#E1A93D"/>
<path fill-rule="evenodd" clip-rule="evenodd" d="M17.0189 7.50701L3.96785 33.4763C2.75066 35.8982 2.87585 38.7781 4.29857 41.0854C5.72129 43.3927 8.23821 44.7977 10.949 44.7977H37.051C39.7617 44.7977 42.2787 43.3927 43.7014 41.0854C45.1241 38.7781 45.2493 35.8982 44.0321 33.4763C40.3231 26.0962 34.9494 15.4033 30.9811 7.50701C29.6548 4.86787 26.9536 3.20227 24 3.20227C21.0463 3.20227 18.3452 4.86787 17.0189 7.50701ZM20.45 9.23126C21.1244 7.88928 22.498 7.04227 24 7.04227C25.502 7.04227 26.8756 7.88928 27.55 9.23126C31.5183 17.1276 36.8921 27.8204 40.601 35.2005C41.22 36.4322 41.1563 37.8967 40.4329 39.0699C39.7094 40.2432 38.4294 40.9577 37.051 40.9577H10.949C9.5705 40.9577 8.29053 40.2432 7.56708 39.0699C6.84362 37.8967 6.77997 36.4322 7.39898 35.2005L20.45 9.23126ZM25.92 35.6731V35.4928C25.92 34.4332 25.0596 33.5728 24 33.5728C22.9403 33.5728 22.08 34.4332 22.08 35.4928V35.6731C22.08 36.7328 22.9403 37.5931 24 37.5931C25.0596 37.5931 25.92 36.7328 25.92 35.6731ZM22.08 14.4539V30.0388C22.08 31.0985 22.9403 31.9588 24 31.9588C25.0596 31.9588 25.92 31.0985 25.92 30.0388V14.4539C25.92 13.3942 25.0596 12.5339 24 12.5339C22.9403 12.5339 22.08 13.3942 22.08 14.4539Z" fill="#212529"/>
</svg>
